<?xml version="1.0" encoding="UTF-8" standalone="no"?>
<!-- Created with Inkscape (http://www.inkscape.org/) -->

<svg
   xmlns:dc="http://purl.org/dc/elements/1.1/"
   xmlns:cc="http://creativecommons.org/ns#"
   xmlns:rdf="http://www.w3.org/1999/02/22-rdf-syntax-ns#"
   xmlns:svg="http://www.w3.org/2000/svg"
   xmlns="http://www.w3.org/2000/svg"
   xmlns:sodipodi="http://sodipodi.sourceforge.net/DTD/sodipodi-0.dtd"
   xmlns:inkscape="http://www.inkscape.org/namespaces/inkscape"
   width="744.09003"
   height="621"
   id="svg2"
   version="1.1"
   inkscape:version="0.48.2 r9819"
   sodipodi:docname="Neues Dokument 1">
  <defs
     id="defs4" />
  <sodipodi:namedview
     id="base"
     pagecolor="#ffffff"
     bordercolor="#666666"
     borderopacity="1.0"
     inkscape:pageopacity="0.0"
     inkscape:pageshadow="2"
     inkscape:zoom="0.49497475"
     inkscape:cx="-416.33913"
     inkscape:cy="552.95568"
     inkscape:document-units="px"
     inkscape:current-layer="layer1"
     showgrid="false"
     inkscape:window-width="1600"
     inkscape:window-height="823"
     inkscape:window-x="-9"
     inkscape:window-y="-9"
     inkscape:window-maximized="1" />
  <metadata
     id="metadata7">
    <rdf:RDF>
      <cc:Work
         rdf:about="">
        <dc:format>image/svg+xml</dc:format>
        <dc:type
           rdf:resource="http://purl.org/dc/dcmitype/StillImage" />
        <dc:title></dc:title>
      </cc:Work>
    </rdf:RDF>
  </metadata>
  <g
     inkscape:label="Ebene 1"
     inkscape:groupmode="layer"
     id="layer1"
     transform="translate(0,-431.36196)">
    <path
       style="fill:#000000"
       d="m 482.89473,955.50404 0,-94.36429 -117.30811,0 -117.30811,0 -0.15829,37.31067 c -0.087,20.52086 -0.15681,60.43104 -0.15503,88.68928 0.002,28.2583 -0.6852,53.3053 -1.52673,55.6602 -0.84153,2.3548 -4.11281,4.2815 -7.26957,4.2815 -5.57219,0 -5.73951,-2.7126 -5.73951,-93.05097 l 0,-93.05095 -113.59583,0.26374 -113.5958181,0.26373 -0.9683827,-5.19857 c -0.7721807,-4.1453 0.4312517,-5.09681 5.9396508,-4.6963 3.799422,0.27625 55.270101,0.33105 114.37928,0.12184 l 107.47127,-0.38057 0.92738,-98.47568 c 0.51005,-54.16162 0.48159,-99.02616 -0.0632,-99.69898 -0.54488,-0.6728 -43.97857,-1.3445 -96.51935,-1.49261 -137.46767533,-0.38755 -129.6816868,-0.0306 -129.6816868,-5.94551 0,-4.75277 1.5980113,-4.97192 33.4105378,-4.58183 18.375797,0.22534 69.828009,0.26957 114.338269,0.0984 l 80.92776,-0.31141 0,-97.3747 c 0,-97.40808 0.73256,-104.73909 10.16829,-101.75617 2.63032,0.8315 3.32157,25.81473 2.77022,100.11943 l -0.73467,99.01144 71.856,0.1123 c 39.5208,0.0616 84.552,0.13652 100.06934,0.16588 15.51733,0.0294 36.64693,-0.022 46.95463,-0.1123 l 18.74129,-0.16588 -0.60343,-95.35796 c -0.4701,-74.29057 0.23343,-96.18856 3.18397,-99.1175 2.7264,-2.70633 4.84221,-3.03836 7.55266,-1.18521 2.9442,2.01299 3.62577,23.62557 3.12574,99.1175 l -0.63944,96.54317 18.01143,-0.0482 c 84.01331,-0.2246 218.38917,1.60763 220.07977,3.00088 1.15416,0.95119 1.28546,3.47491 0.29164,5.60827 -1.60386,3.44322 -13.06867,3.84461 -102.08343,3.57396 -55.15216,-0.16758 -108.62927,-0.21407 -118.83804,-0.10348 l -18.56133,0.20157 0,99.05892 0,99.05896 116.52562,0.64003 c 108.25941,0.59464 116.59657,0.94377 117.52586,4.9216 0.93904,4.0194 -6.19336,4.28155 -116.4903,4.28155 l -117.49059,0 -0.77776,93.58248 c -1.21128,41.99336 -1.71638,80.43313 -4.22687,92.51643 -0.81862,3.9402 -5.45059,1.4668 -6.29118,0.1508 -2.69587,-4.2205 -3.6239,-43.5396 -3.6239,-91.88542 z m 0.0371,-178.16036 c 0.0208,-40.70532 0.67261,-85.29461 1.44937,-99.08733 1.06156,-18.85083 0.49932,-25.13862 -2.26449,-25.32317 -3.66679,-0.24483 -205.86344,-0.14484 -224.18625,0.11084 l -9.65196,0.13467 0,99.08733 0,99.08733 117.3081,0 117.30811,0 0.0371,-74.00967 z M 343.3129,800.69964 c -8.81195,-2.64152 -21.583,-14.38997 -27.38357,-25.19091 -7.19829,-13.40351 -7.87268,-38.94149 -1.35677,-51.37862 2.46745,-4.7097 9.03537,-12.88404 14.59536,-18.1652 9.53555,-9.05726 11.01413,-9.5851 26.05977,-9.30275 10.40942,0.19523 18.5904,1.88603 23.54917,4.86677 20.271,12.18491 26.78905,45.13832 14.04057,70.98502 -8.3638,16.95704 -11.43451,20.14063 -25.00121,25.92024 -9.48783,4.04193 -16.4346,4.68421 -24.50332,2.26545 z m 24.32254,-19.68606 c 13.32265,-12.80584 18.67534,-45.23934 9.79972,-59.37905 -8.71463,-13.88318 -23.14724,-15.8215 -37.7532,-5.07028 -9.16363,6.74518 -9.72109,8.14373 -10.76024,26.99476 -1.19268,21.63637 2.29021,32.2773 12.49144,38.16367 8.38572,4.83876 20.79977,4.50307 26.22228,-0.7091 z m 198.51885,219.74322 c -1.69086,-2.60275 -3.07429,-5.08461 -3.07429,-5.51519 0,-0.43057 7.90573,-9.54847 17.56829,-20.26199 l 17.5683,-19.4791 -7.71801,-11.09303 c -4.24489,-6.10116 -11.6143,-15.66355 -16.37648,-21.24975 -8.87669,-10.41274 -9.20209,-20.42577 -0.66382,-20.42577 4.52201,0 22.28979,16.72308 22.28979,20.97918 0,1.50596 2.69307,5.29619 5.98456,8.4227 6.90666,6.56044 5.50217,7.52772 25.79962,-17.76834 10.67334,-13.30188 18.86118,-17.36052 23.24209,-11.52092 1.05598,1.40758 -3.44057,9.38961 -9.9923,17.73785 -6.55174,8.34824 -14.1259,19.06443 -16.83147,23.81369 l -4.91918,8.63506 13.57866,18.27755 c 20.39202,27.44864 21.17599,28.93846 17.02655,32.35686 -5.42492,4.4692 -12.08986,-0.039 -26.47276,-17.90498 -6.97229,-8.66092 -13.83722,-16.07258 -15.25543,-16.47035 -1.41818,-0.39776 -8.06931,6.20806 -14.78028,14.67961 -19.0831,24.08942 -21.32392,25.48402 -26.97384,16.78692 z m -256.78356,0.1202 c -2.06308,-2.75001 4.02106,-17.40721 7.22568,-17.40721 3.32914,0 23.74666,-23.75835 23.74666,-27.6322 0,-1.73518 -6.6821,-12.09996 -14.84912,-23.03284 -17.74922,-23.76018 -19.68374,-33.74261 -5.96635,-30.78743 3.06295,0.65987 7.87689,5.21923 10.69767,10.13196 2.82074,4.9127 8.67753,13.64051 13.01502,19.39508 l 7.8864,10.46289 11.50347,-14.13279 c 18.17589,-22.33029 25.11757,-27.81088 31.60325,-24.95136 7.44247,3.28133 7.07731,4.658 -4.54778,17.14521 -5.52967,5.93976 -13.48933,16.20457 -17.68817,22.81071 l -7.63423,12.01114 16.34899,19.55234 c 8.99191,10.75378 15.65712,21.03761 14.81155,22.85291 -3.30503,7.09539 -12.61997,2.89559 -25.23802,-11.37902 -7.13685,-8.07378 -14.69793,-14.6796 -16.80242,-14.6796 -2.10447,0 -6.80223,3.57815 -10.43943,7.95145 -15.52521,18.6672 -29.28917,27.53256 -33.67317,21.68876 z M 567.58866,797.59992 c -2.21433,-2.95163 4.92549,-14.73681 18.36906,-30.3205 12.3024,-14.26089 12.05624,-15.61898 -7.75354,-42.77238 -14.65104,-20.08224 -16.33,-27.28953 -6.35724,-27.28953 5.59756,0 14.99169,7.29341 14.99169,11.63924 0,1.47997 1.77672,4.15455 3.94826,5.94352 2.17156,1.78896 5.86472,6.54672 8.20705,10.57279 2.34231,4.02611 5.88073,7.32016 7.86315,7.32016 1.98239,0 9.34319,-7.69623 16.35733,-17.10275 12.29552,-16.48933 20.41065,-21.50182 26.58112,-16.41847 3.10421,2.55731 -1.10115,11.04866 -8.48419,17.13093 -2.19212,1.80593 -3.98569,4.58459 -3.98569,6.17483 0,1.59022 -4.62693,8.2526 -10.28204,14.8053 -10.08841,11.68967 -10.19218,12.0581 -5.51042,19.56498 2.6244,4.20806 10.03349,14.0538 16.46468,21.87946 12.29235,14.95773 12.9068,22.15108 1.77735,20.80719 -4.35038,-0.52531 -10.46736,-6.19824 -18.57471,-17.22625 -6.64852,-9.04366 -12.75642,-16.47408 -13.57312,-16.51208 -0.8167,-0.038 -5.35376,5.70993 -10.08232,12.77311 -4.72859,7.0632 -10.61552,14.76886 -13.08205,17.12372 -4.8815,4.66045 -14.03278,5.69453 -16.87437,1.90681 z M 337.95379,590.01381 c -11.24385,-8.65285 -18.1361,-22.05499 -20.31284,-39.49889 -1.39415,-11.17239 -0.26788,-16.46599 6.41845,-30.17074 12.3343,-25.28068 32.24524,-35.52638 53.15483,-27.35225 5.85534,2.28902 10.64608,5.18196 10.64608,6.42876 0,1.2468 2.91153,5.51113 6.47003,9.47631 5.06753,5.64663 6.74505,11.5916 7.73862,27.42519 1.10452,17.60129 0.31267,21.99083 -6.12256,33.94089 -13.69038,25.42262 -39.29219,34.1419 -57.99261,19.75073 z m 36.95844,-16.50796 c 15.45497,-14.81729 15.89762,-49.1524 0.80529,-62.46237 -8.96578,-7.90693 -16.47979,-8.07354 -26.84148,-0.59516 -8.00193,5.77529 -15.32579,29.01754 -13.82906,43.88651 2.47042,24.54135 23.64353,34.7234 39.86525,19.17102 z m 213.17147,20.0442 c -18.06769,-6.71132 -30.54327,-36.19092 -25.17833,-59.49606 4.65633,-20.22706 14.49408,-35.07849 25.81841,-38.97648 17.10088,-5.88636 27.28545,-4.38481 39.71569,5.85545 13.01315,10.7205 17.75587,22.48931 17.77909,44.11788 0.0374,34.77062 -29.27068,59.22094 -58.13486,48.49921 z m 26.44668,-16.82763 c 21.75816,-16.55685 21.82923,-53.64836 0.12978,-67.70998 -20.47072,-13.26537 -39.55442,10.33221 -35.23401,43.56794 1.66598,12.81586 3.65231,17.13914 10.44603,22.73596 10.13614,8.35034 15.15627,8.6366 24.65826,1.40608 z m -533.704903,7.84021 c -22.922846,-22.4427 -18.599902,-72.90081 7.560442,-88.24677 7.000399,-4.10651 11.728251,-4.94306 22.358061,-3.95601 27.29254,2.53428 38.27182,17.06089 35.56206,47.05192 -3.151,34.87435 -17.91888,52.60191 -43.81988,52.60191 -12.012137,0 -15.154182,-1.08083 -21.660683,-7.45105 z m 35.117883,-11.9598 c 8.19309,-7.45826 13.2702,-22.09223 13.41177,-38.65732 0.11363,-13.29603 -0.91731,-16.20126 -8.03667,-22.64742 -7.01423,-6.35099 -9.39621,-7.11487 -16.87535,-5.41175 -13.178649,3.001 -20.403782,12.81697 -21.889565,29.73888 -0.706447,8.04579 -0.397368,18.52415 0.686839,23.28525 3.658045,16.06374 21.768306,23.6463 32.702976,13.69236 z"
       id="path2996"
       inkscape:connector-curvature="0"
       sodipodi:nodetypes="ccccsscsscccssscscsssscssscssccscsscsccsccccsssccsscccssscccccccsssscssssssssssssscssssssssscssssssssssssscsssscsssssscsssssssssssssssssssccsssssssssssssssssssscsssccsssssssssssss" />
  </g>
</svg>
