<?xml version="1.0" encoding="utf-8"?>
<!-- Generator: Adobe Illustrator 14.0.0, SVG Export Plug-In . SVG Version: 6.00 Build 43363)  -->
<!DOCTYPE svg PUBLIC "-//W3C//DTD SVG 1.1//EN" "http://www.w3.org/Graphics/SVG/1.1/DTD/svg11.dtd">
<svg version="1.1" id="Ebene_1" xmlns="http://www.w3.org/2000/svg" xmlns:xlink="http://www.w3.org/1999/xlink" x="0px" y="0px"
	 width="100px" height="100px" viewBox="100 0 100 100" enable-background="new 100 0 100 100" xml:space="preserve">
<path fill="#535353" d="M198.984,30c0,0-0.977-6.895-3.984-9.922c-3.809-3.984-8.066-4.004-10.02-4.238
	C170.996,14.844,150,14.844,150,14.844h-0.039c0,0-20.996,0-34.98,1.016c-1.953,0.234-6.211,0.254-10.02,4.238
	c-3.008,3.027-3.965,9.902-3.965,9.902S100,38.105,100,46.191v7.578c0,8.086,0.996,16.191,0.996,16.191s0.977,6.895,3.965,9.922
	c3.809,3.984,8.809,3.848,11.035,4.277C124.004,84.922,150,85.156,150,85.156s21.016-0.039,35-1.035
	c1.953-0.234,6.211-0.254,10.02-4.238c3.008-3.027,3.984-9.922,3.984-9.922S200,61.875,200,53.77v-7.578
	C199.98,38.125,198.984,30.02,198.984,30z M139.648,62.969V34.863l27.012,14.102C166.66,48.984,139.648,62.969,139.648,62.969z"/>
</svg>
