<svg id="Ebene_1" data-name="Ebene 1" xmlns="http://www.w3.org/2000/svg" viewBox="0 0 952.19 141.73"><defs><style>.cls-1{fill:#006eaf;}.cls-2{fill:#eb503c;}</style></defs><path d="M289.7,23.33H298L285.64,62.56h-8.59L265.17,23.33h8.29l7.94,26.29Z"/><path d="M334.53,29.16a20,20,0,0,1,5,14,20.26,20.26,0,0,1-40.52,0,20.24,20.24,0,0,1,20.58-20.58A20,20,0,0,1,334.53,29.16ZM307.24,43c0,7.3,5.23,12.88,12.06,12.88s12.05-5.58,12.05-12.7c0-7.59-5.06-13.17-12-13.17S307.24,35.57,307.24,43Z"/><path d="M354.09,62.56H346V23.33h12.12c9.7,0,14.94,4.3,14.94,12.35,0,6.18-3.24,10.29-9.3,11.82l10.83,15.06h-9.77L354.09,47Zm3.65-20.29c4.58,0,7.17-2.24,7.17-6.18,0-3.76-2.47-6.11-6.47-6.11h-4.35V42.27Z"/><path d="M388.43,55.79l-2.35,6.77h-8.53l13.53-39.23h10.05l13.41,39.23h-8.82l-2.23-6.77ZM396,33l-5.47,16.23h10.88Z"/><path d="M426.67,62.56h-8.05V23.33h12.11c9.7,0,14.94,4.3,14.94,12.35,0,6.18-3.24,10.29-9.29,11.82L447.2,62.56h-9.77L426.67,47Zm3.65-20.29c4.59,0,7.17-2.24,7.17-6.18C437.49,32.33,435,30,431,30h-4.35V42.27Z"/><path d="M474,55.91v6.65H452.81V23.33h8.06V55.91Z"/><path d="M491.22,23.33c4.82,0,7.94.71,10,2.24A10.13,10.13,0,0,1,505,33.86a9.42,9.42,0,0,1-2.47,6.7,8.88,8.88,0,0,1-4.12,2.36A8.88,8.88,0,0,1,503,45a9.18,9.18,0,0,1,2.82,7.06,10.22,10.22,0,0,1-4.06,8.59c-2.06,1.35-4.47,1.88-8.76,1.88H478.57V23.33ZM486.63,40h3.24c4.76,0,7-1.71,7-5.36a4.82,4.82,0,0,0-2.35-4.41,12.3,12.3,0,0,0-5.06-.76h-2.82Zm0,16.64h3.94c2.76,0,4.06-.24,5.23-1.06a4.71,4.71,0,0,0,1.95-4.18,4.81,4.81,0,0,0-2.24-4.47c-1.23-.7-2.47-.94-5.41-.94h-3.47Z"/><path d="M520.19,39.56H534v6.59H520.19V56H534v6.59H512.14V23.33H534v6.59H520.19Z"/><path d="M549.68,62.56h-8.06V23.33h12.12c9.7,0,14.94,4.3,14.94,12.35,0,6.18-3.24,10.29-9.3,11.82l10.83,15.06h-9.77L549.68,47Zm3.65-20.29c4.58,0,7.17-2.24,7.17-6.18C560.5,32.33,558,30,554,30h-4.35V42.27Z"/><path d="M613.43,40.56v2.12c0,6.06-1.76,10.59-5.7,14.58a20.07,20.07,0,0,1-14.47,6.06c-11.53,0-20.17-8.7-20.17-20.29s8.58-20.46,20.11-20.46a19.92,19.92,0,0,1,15.88,7.53L603,34.86c-2.88-3.41-5.76-4.88-9.64-4.88-6.88,0-12.12,5.64-12.12,13.05s5.41,13,12.29,13a11.58,11.58,0,0,0,8.77-3.94,11.2,11.2,0,0,0,2.41-4.94H593.79V40.56Z"/><path d="M626.72,39.56h13.76v6.59H626.72V56h13.76v6.59H618.66V23.33h21.82v6.59H626.72Z"/><path d="M656.21,62.56h-8.06V23.33h12.12c9.7,0,14.93,4.3,14.93,12.35,0,6.18-3.23,10.29-9.29,11.82l10.82,15.06H667L656.21,47Zm3.65-20.29c4.58,0,7.17-2.24,7.17-6.18,0-3.76-2.47-6.11-6.47-6.11h-4.35V42.27Z"/><path d="M290.34,110.91v6.65H269.17V78.33h8.06v32.58Z"/><path d="M304,110.79l-2.35,6.77h-8.53l13.53-39.23h10.05l13.41,39.23h-8.82L319,110.79ZM311.5,88,306,104.21h10.88Z"/><path d="M342.21,117.56h-8V78.33h7.94l16.4,24.47V78.33h8.06v39.23h-7.88L342.21,92.74Z"/><path d="M375.14,78.33h11.12c6.35,0,10.64,1.3,14.11,4.35,4,3.53,6.18,8.65,6.18,14.82s-2.24,11.94-6.24,15.53c-3.23,2.94-7.94,4.53-13.58,4.53H375.14Zm8.06,32.58h1.53c4.29,0,6.94-.76,9.23-2.7a13.41,13.41,0,0,0,4.41-10.47c0-7.82-4.76-12.88-12.23-12.88H383.2Z"/><path d="M420.43,94.56h13.76v6.59H420.43V111h13.76v6.59H412.38V78.33h21.81v6.59H420.43Z"/><path d="M447.33,106.09v.53c0,2.65,2.29,4.59,5.35,4.59s5.17-1.83,5.17-4.18a3.91,3.91,0,0,0-1.58-3.12c-1-.76-1.71-1-4.77-2.17-8.58-3.06-11.64-6.29-11.64-12.29,0-7.12,5.23-11.88,12.94-11.88S465.38,82,466,89.57h-8.12c-.29-3.3-1.94-4.89-5.11-4.89-2.88,0-4.83,1.65-4.83,4.12a4.13,4.13,0,0,0,2.42,3.71A28,28,0,0,0,455,94.45c4.3,1.58,6.47,2.7,8.18,4.35a10.16,10.16,0,0,1,3.11,7.58c0,7.18-5.41,11.94-13.52,11.94s-13.29-4.7-13.23-12.23Z"/><path d="M481.14,117.56h-8.05V78.33h8.05V95.39l11.12-17.06h9.35l-12.7,18.88,12.7,20.35h-9.47l-11-17.47Z"/><path d="M513.9,117.56h-8.06V78.33H518c9.7,0,14.94,4.3,14.94,12.35,0,6.18-3.24,10.29-9.3,11.82l10.82,15.06h-9.76L513.9,102Zm3.65-20.29c4.58,0,7.17-2.24,7.17-6.18,0-3.76-2.47-6.11-6.47-6.11H513.9V97.27Z"/><path d="M548.24,110.79l-2.35,6.77h-8.53l13.53-39.23h10.05l13.41,39.23h-8.82l-2.24-6.77ZM555.77,88l-5.47,16.23h10.88Z"/><path d="M586.48,117.56h-8.05V78.33h7.94l16.4,24.47V78.33h8.06v39.23H603L586.48,92.74Z"/><path d="M627.47,117.56h-8.06V78.33h8.06V95.39l11.12-17.06h9.35L635.23,97.21l12.71,20.35h-9.47l-11-17.47Z"/><path d="M659.6,94.56h13.77v6.59H659.6V111h13.77v6.59H651.55V78.33h21.82v6.59H659.6Z"/><path d="M689.09,117.56H681V78.33H689l16.4,24.47V78.33h8.06v39.23h-7.88L689.09,92.74Z"/><path d="M730.08,117.56H722V78.33h8.05V94.92H745V78.33H753v39.23H745V101.5H730.08Z"/><path d="M768,110.79l-2.35,6.77h-8.53l13.53-39.23H780.7l13.41,39.23h-8.82l-2.23-6.77Zm5.47-40.22a4.12,4.12,0,1,1-4.06-4.06A4.05,4.05,0,0,1,773.47,70.57ZM775.53,88l-5.47,16.23h10.88ZM786,70.57a4.12,4.12,0,1,1-4.06-4.06A4.05,4.05,0,0,1,786,70.57Z"/><path d="M804.72,101.33c0,3.64.47,5.64,1.77,7.17a7.39,7.39,0,0,0,11.17-.29c1.17-1.59,1.53-3.3,1.53-6.94V78.33h8.11V101c0,5.77-1.23,9.76-3.88,12.71a15.07,15.07,0,0,1-11.35,4.58,15.76,15.76,0,0,1-11.88-4.88c-2.53-2.82-3.53-6.35-3.53-12.41V78.33h8.06Z"/><path d="M841.15,106.09v.53c0,2.65,2.29,4.59,5.35,4.59s5.17-1.83,5.17-4.18a3.91,3.91,0,0,0-1.58-3.12c-1-.76-1.71-1-4.77-2.17-8.58-3.06-11.64-6.29-11.64-12.29,0-7.12,5.23-11.88,12.94-11.88s12.58,4.47,13.23,12h-8.12c-.29-3.3-1.94-4.89-5.11-4.89-2.89,0-4.83,1.65-4.83,4.12a4.14,4.14,0,0,0,2.41,3.71,28.68,28.68,0,0,0,4.59,1.94c4.29,1.58,6.47,2.7,8.18,4.35a10.16,10.16,0,0,1,3.11,7.58c0,7.18-5.41,11.94-13.52,11.94s-13.29-4.7-13.23-12.23Z"/><path d="M874.34,94.56H888.1v6.59H874.34V111H888.1v6.59H866.28V78.33H888.1v6.59H874.34Z"/><path d="M903.83,117.56h-8.06V78.33h12.12c9.7,0,14.93,4.3,14.93,12.35,0,6.18-3.23,10.29-9.29,11.82l10.82,15.06h-9.76L903.83,102Zm3.64-20.29c4.59,0,7.18-2.24,7.18-6.18,0-3.76-2.47-6.11-6.47-6.11h-4.35V97.27Z"/><rect class="cls-1" x="20.5" y="43.52" width="37.02" height="74.28"/><rect class="cls-1" x="136.23" y="43.52" width="37.02" height="74.28"/><rect class="cls-1" x="59.74" y="62.15" width="74.28" height="37.02" transform="translate(-28.66 92.13) rotate(-45)"/><polygon class="cls-2" points="228.42 23.72 218.75 33.39 204.26 47.88 189.77 33.39 180.09 23.72 194.58 9.23 204.26 18.91 213.93 9.23 228.42 23.72"/></svg>